<svg width="91" height="24" viewBox="0 0 91 24" fill="none" xmlns="http://www.w3.org/2000/svg">
<path d="M6.65625 18.4531C7.16667 20.8594 7.90625 22.0625 8.875 22.0625C9.25 22.0625 9.60938 21.9271 9.95312 21.6562C10.2969 21.375 10.6146 21.0365 10.9062 20.6406C11.2083 20.2344 11.474 19.8073 11.7031 19.3594C11.9323 18.9115 12.1198 18.5208 12.2656 18.1875C12.3698 17.9375 12.5521 17.8125 12.8125 17.8125C12.9792 17.8125 13.1198 17.875 13.2344 18C13.349 18.125 13.4062 18.2604 13.4062 18.4062C13.4062 18.4896 13.3906 18.5625 13.3594 18.625C13.2865 18.8021 13.1771 19.0417 13.0312 19.3438C12.8958 19.6354 12.724 19.9531 12.5156 20.2969C12.3177 20.6302 12.0938 20.974 11.8438 21.3281C11.5938 21.6823 11.3177 22 11.0156 22.2812C10.7135 22.5625 10.3906 22.7969 10.0469 22.9844C9.71354 23.1615 9.35938 23.25 8.98438 23.25C8.28646 23.25 7.6875 23.0104 7.1875 22.5312C6.6875 22.0417 6.25521 21.2396 5.89062 20.125C5.39062 21.1875 4.88542 21.9583 4.375 22.4375C3.86458 22.9167 3.3125 23.1562 2.71875 23.1562C2.40625 23.1562 2.10417 23.1042 1.8125 23C1.52083 22.9062 1.26562 22.7448 1.04688 22.5156C0.828125 22.2865 0.651042 21.9948 0.515625 21.6406C0.380208 21.276 0.3125 20.8333 0.3125 20.3125C0.3125 19.5938 0.4375 18.9323 0.6875 18.3281C0.9375 17.724 1.26042 17.2083 1.65625 16.7812C2.05208 16.3438 2.48958 16.0052 2.96875 15.7656C3.45833 15.526 3.94271 15.4062 4.42188 15.4062C4.57812 15.4062 4.71354 15.4635 4.82812 15.5781C4.94271 15.6823 5 15.8177 5 15.9844C5 16.1302 4.95312 16.2604 4.85938 16.375C4.76562 16.4896 4.64062 16.5573 4.48438 16.5781C4.17188 16.6198 3.83854 16.7188 3.48438 16.875C3.13021 17.0312 2.80208 17.2604 2.5 17.5625C2.20833 17.8542 1.96354 18.2292 1.76562 18.6875C1.57812 19.1458 1.48438 19.6927 1.48438 20.3281C1.48438 20.849 1.58854 21.2552 1.79688 21.5469C2.01562 21.8385 2.32812 21.9844 2.73438 21.9844C2.90104 21.9844 3.07812 21.9427 3.26562 21.8594C3.45312 21.7656 3.65104 21.5885 3.85938 21.3281C4.07812 21.0677 4.3125 20.6979 4.5625 20.2188C4.82292 19.7396 5.10938 19.1094 5.42188 18.3281C5.24479 17.4115 5.08333 16.3542 4.9375 15.1562C4.79167 13.9583 4.71875 12.6198 4.71875 11.1406C4.71875 10.4948 4.73958 9.82292 4.78125 9.125C4.82292 8.41667 4.89062 7.72917 4.98438 7.0625C5.07812 6.38542 5.20312 5.74479 5.35938 5.14062C5.51562 4.53646 5.70312 4.00521 5.92188 3.54688C6.15104 3.08854 6.41667 2.72917 6.71875 2.46875C7.02083 2.19792 7.36458 2.0625 7.75 2.0625C8.09375 2.0625 8.38542 2.15625 8.625 2.34375C8.86458 2.53125 9.05729 2.79167 9.20312 3.125C9.35938 3.45833 9.47396 3.85938 9.54688 4.32812C9.61979 4.79688 9.65625 5.3125 9.65625 5.875C9.65625 7.08333 9.55208 8.29167 9.34375 9.5C9.13542 10.7083 8.875 11.8646 8.5625 12.9688C8.26042 14.0729 7.9375 15.0938 7.59375 16.0312C7.25 16.9688 6.9375 17.776 6.65625 18.4531ZM8.48438 5.85938C8.48438 5.59896 8.47396 5.31771 8.45312 5.01562C8.44271 4.71354 8.40625 4.43229 8.34375 4.17188C8.29167 3.90104 8.21875 3.67708 8.125 3.5C8.03125 3.32292 7.90625 3.23438 7.75 3.23438C7.48958 3.23438 7.24479 3.46354 7.01562 3.92188C6.79688 4.38021 6.60417 4.98438 6.4375 5.73438C6.27083 6.47396 6.13542 7.31771 6.03125 8.26562C5.9375 9.20312 5.89062 10.151 5.89062 11.1094C5.89062 12.026 5.92708 12.9427 6 13.8594C6.07292 14.776 6.15625 15.5938 6.25 16.3125C6.55208 15.5104 6.83854 14.6875 7.10938 13.8438C7.38021 12.9896 7.61458 12.1198 7.8125 11.2344C8.02083 10.349 8.18229 9.45833 8.29688 8.5625C8.42188 7.65625 8.48438 6.75521 8.48438 5.85938ZM13.9219 16.5781C13.8802 16.8594 13.8281 17.125 13.7656 17.375C13.7031 17.6146 13.6406 17.8281 13.5781 18.0156C13.526 18.1927 13.4792 18.3385 13.4375 18.4531C13.3958 18.5677 13.3698 18.6302 13.3594 18.6406C13.2552 18.8802 13.0729 19 12.8125 19C12.6667 19 12.5312 18.9479 12.4062 18.8438C12.2812 18.7292 12.2188 18.5885 12.2188 18.4219C12.2188 18.3594 12.2292 18.3125 12.25 18.2812C12.2708 18.25 12.3021 18.1875 12.3438 18.0938C12.3854 18 12.4375 17.8438 12.5 17.625C12.5625 17.4062 12.6406 17.0677 12.7344 16.6094C12.5573 16.6094 12.375 16.6042 12.1875 16.5938C12 16.5833 11.8281 16.5469 11.6719 16.4844C11.5052 16.4219 11.3698 16.3229 11.2656 16.1875C11.1615 16.0521 11.1094 15.8646 11.1094 15.625C11.1094 15.4479 11.1615 15.2083 11.2656 14.9062C11.3594 14.6042 11.4896 14.3073 11.6562 14.0156C11.8229 13.724 12.0104 13.474 12.2188 13.2656C12.4271 13.0469 12.6354 12.9375 12.8438 12.9375C13.0833 12.9375 13.276 13.026 13.4219 13.2031C13.5781 13.3802 13.6979 13.599 13.7812 13.8594C13.8646 14.1094 13.9219 14.375 13.9531 14.6562C13.9948 14.9375 14.0156 15.1823 14.0156 15.3906C14.1927 15.3906 14.3646 15.3906 14.5312 15.3906C14.7083 15.3802 14.875 15.375 15.0312 15.375C15.625 15.375 16.0781 15.5052 16.3906 15.7656C16.7031 16.026 16.8594 16.4531 16.8594 17.0469C16.8594 17.2865 16.8438 17.5365 16.8125 17.7969C16.7812 18.0573 16.7448 18.3281 16.7031 18.6094C16.6615 18.8802 16.625 19.151 16.5938 19.4219C16.5625 19.6927 16.5469 19.9583 16.5469 20.2188C16.5469 20.5938 16.599 20.9062 16.7031 21.1562C16.8073 21.3958 16.9375 21.5885 17.0938 21.7344C17.25 21.8802 17.4167 21.9844 17.5938 22.0469C17.7708 22.099 17.9323 22.125 18.0781 22.125C18.526 22.125 18.9479 21.9792 19.3438 21.6875C19.7396 21.3958 20.1042 21.0469 20.4375 20.6406C20.7708 20.224 21.0677 19.7865 21.3281 19.3281C21.599 18.8698 21.8229 18.4688 22 18.125C22.0521 18.0312 22.125 17.9583 22.2188 17.9062C22.3125 17.8542 22.4115 17.8281 22.5156 17.8281C22.7031 17.8281 22.849 17.8906 22.9531 18.0156C23.0573 18.1302 23.1094 18.2604 23.1094 18.4062C23.1094 18.5104 23.0885 18.6042 23.0469 18.6875C22.8073 19.1146 22.526 19.599 22.2031 20.1406C21.8906 20.6719 21.5312 21.1719 21.125 21.6406C20.7188 22.1094 20.2604 22.5052 19.75 22.8281C19.25 23.151 18.6979 23.3125 18.0938 23.3125C17.7188 23.3125 17.3646 23.2396 17.0312 23.0938C16.6979 22.9583 16.4062 22.7604 16.1562 22.5C15.9167 22.2292 15.724 21.901 15.5781 21.5156C15.4323 21.1198 15.3594 20.6771 15.3594 20.1875C15.3594 19.6667 15.4115 19.151 15.5156 18.6406C15.6198 18.1198 15.6719 17.625 15.6719 17.1562C15.6719 16.9583 15.625 16.8125 15.5312 16.7188C15.4479 16.6146 15.2552 16.5625 14.9531 16.5625C14.8073 16.5625 14.6458 16.5625 14.4688 16.5625C14.3021 16.5625 14.1198 16.5677 13.9219 16.5781ZM12.875 15.4219C12.875 15.349 12.8698 15.2552 12.8594 15.1406C12.8594 15.0156 12.849 14.8958 12.8281 14.7812C12.8177 14.6667 12.7969 14.5677 12.7656 14.4844C12.7448 14.401 12.7188 14.3594 12.6875 14.3594C12.6562 14.3594 12.6146 14.401 12.5625 14.4844C12.5208 14.5573 12.474 14.651 12.4219 14.7656C12.3698 14.8698 12.3229 14.9844 12.2812 15.1094C12.2396 15.2344 12.2083 15.3385 12.1875 15.4219H12.875ZM24.5469 10.7344C24.5469 11.1302 24.4062 11.4688 24.125 11.75C23.8542 12.0208 23.5208 12.1562 23.125 12.1562C22.7292 12.1562 22.3906 12.0208 22.1094 11.75C21.8385 11.4688 21.7031 11.1302 21.7031 10.7344C21.7031 10.5365 21.7396 10.3542 21.8125 10.1875C21.8854 10.0104 21.9844 9.85938 22.1094 9.73438C22.2448 9.59896 22.3958 9.49479 22.5625 9.42188C22.7396 9.34896 22.9271 9.3125 23.125 9.3125C23.3229 9.3125 23.5052 9.34896 23.6719 9.42188C23.849 9.49479 24 9.59896 24.125 9.73438C24.2604 9.85938 24.3646 10.0104 24.4375 10.1875C24.5104 10.3542 24.5469 10.5365 24.5469 10.7344ZM22.0156 19.8906C22.0156 18.3906 22.1094 16.8958 22.2969 15.4062C22.3177 15.2604 22.3802 15.1354 22.4844 15.0312C22.599 14.9167 22.7448 14.8594 22.9219 14.8594C23.0781 14.8594 23.2083 14.9219 23.3125 15.0469C23.4167 15.1615 23.4688 15.2969 23.4688 15.4531C23.4688 15.5156 23.4531 15.7031 23.4219 16.0156C23.401 16.3281 23.3698 16.7031 23.3281 17.1406C23.2969 17.5677 23.2656 18.026 23.2344 18.5156C23.2135 18.9948 23.2031 19.4375 23.2031 19.8438C23.2031 20.3958 23.2552 20.8438 23.3594 21.1875C23.474 21.5208 23.6146 21.7812 23.7812 21.9688C23.9583 22.1562 24.1406 22.2812 24.3281 22.3438C24.526 22.4062 24.7135 22.4375 24.8906 22.4375C25.1823 22.4375 25.4844 22.3333 25.7969 22.125C26.1094 21.9167 26.4271 21.625 26.75 21.25C27.0833 20.875 27.4167 20.4271 27.75 19.9062C28.0833 19.375 28.4115 18.7865 28.7344 18.1406C28.7865 18.0365 28.8594 17.9583 28.9531 17.9062C29.0469 17.8438 29.151 17.8125 29.2656 17.8125C29.4323 17.8125 29.5677 17.875 29.6719 18C29.7865 18.125 29.8438 18.2604 29.8438 18.4062C29.8438 18.5104 29.8229 18.599 29.7812 18.6719C29.6562 18.9115 29.5 19.2031 29.3125 19.5469C29.125 19.8906 28.9115 20.2448 28.6719 20.6094C28.4323 20.974 28.1667 21.3385 27.875 21.7031C27.5938 22.0573 27.2917 22.3802 26.9688 22.6719C26.6458 22.9531 26.3073 23.1823 25.9531 23.3594C25.599 23.5365 25.2396 23.625 24.875 23.625C24.4062 23.625 23.9948 23.526 23.6406 23.3281C23.2865 23.1302 22.9844 22.8646 22.7344 22.5312C22.4948 22.1979 22.3125 21.8073 22.1875 21.3594C22.0729 20.901 22.0156 20.4115 22.0156 19.8906ZM23.6719 10.7344C23.6719 10.5885 23.6146 10.4635 23.5 10.3594C23.3958 10.2448 23.2708 10.1875 23.125 10.1875C22.9792 10.1875 22.8542 10.2448 22.75 10.3594C22.6458 10.4635 22.5938 10.5885 22.5938 10.7344C22.5938 10.8802 22.6458 11.0052 22.75 11.1094C22.8542 11.2135 22.9792 11.2656 23.125 11.2656C23.2708 11.2656 23.3958 11.2135 23.5 11.1094C23.6146 11.0052 23.6719 10.8802 23.6719 10.7344ZM39.6719 18.6562C39.6406 19.1979 39.5677 19.7448 39.4531 20.2969C39.3385 20.8385 39.1562 21.3281 38.9062 21.7656C38.6667 22.2031 38.349 22.5625 37.9531 22.8438C37.5573 23.1146 37.0677 23.25 36.4844 23.25C36.1198 23.25 35.7969 23.1927 35.5156 23.0781C35.2448 22.974 35.0052 22.8333 34.7969 22.6562C34.599 22.4688 34.4323 22.2604 34.2969 22.0312C34.1615 21.7917 34.0469 21.5417 33.9531 21.2812C33.5885 21.8854 33.1562 22.3542 32.6562 22.6875C32.1667 23.0104 31.6771 23.1719 31.1875 23.1719C30.7917 23.1719 30.4323 23.099 30.1094 22.9531C29.7969 22.8073 29.526 22.6042 29.2969 22.3438C29.0781 22.0729 28.9062 21.75 28.7812 21.375C28.6562 21 28.5938 20.5781 28.5938 20.1094C28.5938 19.3281 28.6615 18.6562 28.7969 18.0938C28.9427 17.5208 29.099 17.0521 29.2656 16.6875C29.4427 16.3229 29.6042 16.0521 29.75 15.875C29.8958 15.6875 29.9688 15.5938 29.9688 15.5938C30.0208 15.5312 30.0833 15.4844 30.1562 15.4531C30.2396 15.4219 30.3229 15.4062 30.4062 15.4062C30.5729 15.4062 30.7083 15.4688 30.8125 15.5938C30.9271 15.7083 30.9844 15.8438 30.9844 16C30.9844 16.1146 30.9427 16.2396 30.8594 16.375C30.8177 16.4375 30.7344 16.5573 30.6094 16.7344C30.4948 16.9115 30.375 17.151 30.25 17.4531C30.125 17.7552 30.0104 18.125 29.9062 18.5625C29.8125 19 29.7656 19.5156 29.7656 20.1094C29.7656 20.724 29.8906 21.1927 30.1406 21.5156C30.3906 21.8281 30.7396 21.9844 31.1875 21.9844C31.4062 21.9844 31.6458 21.9271 31.9062 21.8125C32.1667 21.6875 32.4115 21.5 32.6406 21.25C32.8698 21 33.0677 20.6823 33.2344 20.2969C33.401 19.9115 33.5052 19.4583 33.5469 18.9375L33.75 16.25C33.7604 16.0938 33.8229 15.9635 33.9375 15.8594C34.0625 15.7552 34.2031 15.7031 34.3594 15.7031C34.5365 15.7031 34.6771 15.7708 34.7812 15.9062C34.8854 16.0312 34.9375 16.1771 34.9375 16.3438L34.7656 18.9219C34.7344 19.474 34.75 19.9479 34.8125 20.3438C34.8854 20.7396 35 21.0677 35.1562 21.3281C35.3125 21.5781 35.5052 21.7656 35.7344 21.8906C35.9635 22.0052 36.2188 22.0625 36.5 22.0625C36.875 22.0625 37.1927 21.9531 37.4531 21.7344C37.7135 21.5156 37.9219 21.2188 38.0781 20.8438C38.2344 20.4688 38.3438 20.0365 38.4062 19.5469C38.4792 19.0469 38.5156 18.5208 38.5156 17.9688C38.5156 17.3125 38.4792 16.7656 38.4062 16.3281C38.3333 15.8906 38.2969 15.599 38.2969 15.4531C38.2969 15.2969 38.3542 15.1615 38.4688 15.0469C38.5833 14.9219 38.724 14.8594 38.8906 14.8594C39.0365 14.8594 39.1615 14.9062 39.2656 15C39.3698 15.0833 39.4375 15.1979 39.4688 15.3438C39.4792 15.3854 39.5104 15.5052 39.5625 15.7031C39.6146 15.901 39.6875 16.1406 39.7812 16.4219C39.875 16.6927 39.9948 16.9844 40.1406 17.2969C40.2969 17.599 40.4792 17.8802 40.6875 18.1406C40.9062 18.401 41.151 18.6198 41.4219 18.7969C41.7031 18.9635 42.0208 19.0469 42.375 19.0469C42.5729 19.0469 42.7396 19.0104 42.875 18.9375C43.0208 18.8542 43.1406 18.7604 43.2344 18.6562C43.3281 18.5521 43.3958 18.4531 43.4375 18.3594C43.4896 18.2656 43.5208 18.2083 43.5312 18.1875C43.5833 18.0729 43.6562 17.9844 43.75 17.9219C43.8542 17.849 43.9635 17.8125 44.0781 17.8125C44.2552 17.8125 44.3958 17.8802 44.5 18.0156C44.6146 18.1406 44.6719 18.276 44.6719 18.4219C44.6719 18.5469 44.6146 18.7135 44.5 18.9219C44.3958 19.1302 44.2448 19.3333 44.0469 19.5312C43.849 19.7188 43.6042 19.8854 43.3125 20.0312C43.0312 20.1667 42.7188 20.2344 42.375 20.2344C42.0729 20.2344 41.7917 20.1927 41.5312 20.1094C41.2708 20.0156 41.026 19.8958 40.7969 19.75C40.5781 19.6042 40.375 19.4375 40.1875 19.25C40 19.0625 39.8281 18.8646 39.6719 18.6562ZM54.5156 18.6562C54.4844 19.1979 54.4115 19.7448 54.2969 20.2969C54.1823 20.8385 54 21.3281 53.75 21.7656C53.5104 22.2031 53.1927 22.5625 52.7969 22.8438C52.401 23.1146 51.9115 23.25 51.3281 23.25C50.9635 23.25 50.6406 23.1927 50.3594 23.0781C50.0885 22.974 49.849 22.8333 49.6406 22.6562C49.4427 22.4688 49.276 22.2604 49.1406 22.0312C49.0052 21.7917 48.8906 21.5417 48.7969 21.2812C48.4323 21.8854 48 22.3542 47.5 22.6875C47.0104 23.0104 46.5208 23.1719 46.0312 23.1719C45.6354 23.1719 45.276 23.099 44.9531 22.9531C44.6406 22.8073 44.3698 22.6042 44.1406 22.3438C43.9219 22.0729 43.75 21.75 43.625 21.375C43.5 21 43.4375 20.5781 43.4375 20.1094C43.4375 19.3281 43.5052 18.6562 43.6406 18.0938C43.7865 17.5208 43.9427 17.0521 44.1094 16.6875C44.2865 16.3229 44.4479 16.0521 44.5938 15.875C44.7396 15.6875 44.8125 15.5938 44.8125 15.5938C44.8646 15.5312 44.9271 15.4844 45 15.4531C45.0833 15.4219 45.1667 15.4062 45.25 15.4062C45.4167 15.4062 45.5521 15.4688 45.6562 15.5938C45.7708 15.7083 45.8281 15.8438 45.8281 16C45.8281 16.1146 45.7865 16.2396 45.7031 16.375C45.6615 16.4375 45.5781 16.5573 45.4531 16.7344C45.3385 16.9115 45.2188 17.151 45.0938 17.4531C44.9688 17.7552 44.8542 18.125 44.75 18.5625C44.6562 19 44.6094 19.5156 44.6094 20.1094C44.6094 20.724 44.7344 21.1927 44.9844 21.5156C45.2344 21.8281 45.5833 21.9844 46.0312 21.9844C46.25 21.9844 46.4896 21.9271 46.75 21.8125C47.0104 21.6875 47.2552 21.5 47.4844 21.25C47.7135 21 47.9115 20.6823 48.0781 20.2969C48.2448 19.9115 48.349 19.4583 48.3906 18.9375L48.5938 16.25C48.6042 16.0938 48.6667 15.9635 48.7812 15.8594C48.9062 15.7552 49.0469 15.7031 49.2031 15.7031C49.3802 15.7031 49.5208 15.7708 49.625 15.9062C49.7292 16.0312 49.7812 16.1771 49.7812 16.3438L49.6094 18.9219C49.5781 19.474 49.5938 19.9479 49.6562 20.3438C49.7292 20.7396 49.8438 21.0677 50 21.3281C50.1562 21.5781 50.349 21.7656 50.5781 21.8906C50.8073 22.0052 51.0625 22.0625 51.3438 22.0625C51.7188 22.0625 52.0365 21.9531 52.2969 21.7344C52.5573 21.5156 52.7656 21.2188 52.9219 20.8438C53.0781 20.4688 53.1875 20.0365 53.25 19.5469C53.3229 19.0469 53.3594 18.5208 53.3594 17.9688C53.3594 17.3125 53.3229 16.7656 53.25 16.3281C53.1771 15.8906 53.1406 15.599 53.1406 15.4531C53.1406 15.2969 53.1979 15.1615 53.3125 15.0469C53.4271 14.9219 53.5677 14.8594 53.7344 14.8594C53.8802 14.8594 54.0052 14.9062 54.1094 15C54.2135 15.0833 54.2812 15.1979 54.3125 15.3438C54.3229 15.3854 54.3542 15.5052 54.4062 15.7031C54.4583 15.901 54.5312 16.1406 54.625 16.4219C54.7188 16.6927 54.8385 16.9844 54.9844 17.2969C55.1406 17.599 55.3229 17.8802 55.5312 18.1406C55.75 18.401 55.9948 18.6198 56.2656 18.7969C56.5469 18.9635 56.8646 19.0469 57.2188 19.0469C57.4167 19.0469 57.5833 19.0104 57.7188 18.9375C57.8646 18.8542 57.9844 18.7604 58.0781 18.6562C58.1719 18.5521 58.2396 18.4531 58.2812 18.3594C58.3333 18.2656 58.3646 18.2083 58.375 18.1875C58.4271 18.0729 58.5 17.9844 58.5938 17.9219C58.6979 17.849 58.8073 17.8125 58.9219 17.8125C59.099 17.8125 59.2396 17.8802 59.3438 18.0156C59.4583 18.1406 59.5156 18.276 59.5156 18.4219C59.5156 18.5469 59.4583 18.7135 59.3438 18.9219C59.2396 19.1302 59.0885 19.3333 58.8906 19.5312C58.6927 19.7188 58.4479 19.8854 58.1562 20.0312C57.875 20.1667 57.5625 20.2344 57.2188 20.2344C56.9167 20.2344 56.6354 20.1927 56.375 20.1094C56.1146 20.0156 55.8698 19.8958 55.6406 19.75C55.4219 19.6042 55.2188 19.4375 55.0312 19.25C54.8438 19.0625 54.6719 18.8646 54.5156 18.6562ZM69.3594 18.6562C69.3281 19.1979 69.2552 19.7448 69.1406 20.2969C69.026 20.8385 68.8438 21.3281 68.5938 21.7656C68.3542 22.2031 68.0365 22.5625 67.6406 22.8438C67.2448 23.1146 66.7552 23.25 66.1719 23.25C65.8073 23.25 65.4844 23.1927 65.2031 23.0781C64.9323 22.974 64.6927 22.8333 64.4844 22.6562C64.2865 22.4688 64.1198 22.2604 63.9844 22.0312C63.849 21.7917 63.7344 21.5417 63.6406 21.2812C63.276 21.8854 62.8438 22.3542 62.3438 22.6875C61.8542 23.0104 61.3646 23.1719 60.875 23.1719C60.4792 23.1719 60.1198 23.099 59.7969 22.9531C59.4844 22.8073 59.2135 22.6042 58.9844 22.3438C58.7656 22.0729 58.5938 21.75 58.4688 21.375C58.3438 21 58.2812 20.5781 58.2812 20.1094C58.2812 19.3281 58.349 18.6562 58.4844 18.0938C58.6302 17.5208 58.7865 17.0521 58.9531 16.6875C59.1302 16.3229 59.2917 16.0521 59.4375 15.875C59.5833 15.6875 59.6562 15.5938 59.6562 15.5938C59.7083 15.5312 59.7708 15.4844 59.8438 15.4531C59.9271 15.4219 60.0104 15.4062 60.0938 15.4062C60.2604 15.4062 60.3958 15.4688 60.5 15.5938C60.6146 15.7083 60.6719 15.8438 60.6719 16C60.6719 16.1146 60.6302 16.2396 60.5469 16.375C60.5052 16.4375 60.4219 16.5573 60.2969 16.7344C60.1823 16.9115 60.0625 17.151 59.9375 17.4531C59.8125 17.7552 59.6979 18.125 59.5938 18.5625C59.5 19 59.4531 19.5156 59.4531 20.1094C59.4531 20.724 59.5781 21.1927 59.8281 21.5156C60.0781 21.8281 60.4271 21.9844 60.875 21.9844C61.0938 21.9844 61.3333 21.9271 61.5938 21.8125C61.8542 21.6875 62.099 21.5 62.3281 21.25C62.5573 21 62.7552 20.6823 62.9219 20.2969C63.0885 19.9115 63.1927 19.4583 63.2344 18.9375L63.4375 16.25C63.4479 16.0938 63.5104 15.9635 63.625 15.8594C63.75 15.7552 63.8906 15.7031 64.0469 15.7031C64.224 15.7031 64.3646 15.7708 64.4688 15.9062C64.5729 16.0312 64.625 16.1771 64.625 16.3438L64.4531 18.9219C64.4219 19.474 64.4375 19.9479 64.5 20.3438C64.5729 20.7396 64.6875 21.0677 64.8438 21.3281C65 21.5781 65.1927 21.7656 65.4219 21.8906C65.651 22.0052 65.9062 22.0625 66.1875 22.0625C66.5625 22.0625 66.8802 21.9531 67.1406 21.7344C67.401 21.5156 67.6094 21.2188 67.7656 20.8438C67.9219 20.4688 68.0312 20.0365 68.0938 19.5469C68.1667 19.0469 68.2031 18.5208 68.2031 17.9688C68.2031 17.3125 68.1667 16.7656 68.0938 16.3281C68.0208 15.8906 67.9844 15.599 67.9844 15.4531C67.9844 15.2969 68.0417 15.1615 68.1562 15.0469C68.2708 14.9219 68.4115 14.8594 68.5781 14.8594C68.724 14.8594 68.849 14.9062 68.9531 15C69.0573 15.0833 69.125 15.1979 69.1562 15.3438C69.1667 15.3854 69.1979 15.5052 69.25 15.7031C69.3021 15.901 69.375 16.1406 69.4688 16.4219C69.5625 16.6927 69.6823 16.9844 69.8281 17.2969C69.9844 17.599 70.1667 17.8802 70.375 18.1406C70.5938 18.401 70.8385 18.6198 71.1094 18.7969C71.3906 18.9635 71.7083 19.0469 72.0625 19.0469C72.2604 19.0469 72.4271 19.0104 72.5625 18.9375C72.7083 18.8542 72.8281 18.7604 72.9219 18.6562C73.0156 18.5521 73.0833 18.4531 73.125 18.3594C73.1771 18.2656 73.2083 18.2083 73.2188 18.1875C73.2708 18.0729 73.3438 17.9844 73.4375 17.9219C73.5417 17.849 73.651 17.8125 73.7656 17.8125C73.9427 17.8125 74.0833 17.8802 74.1875 18.0156C74.3021 18.1406 74.3594 18.276 74.3594 18.4219C74.3594 18.5469 74.3021 18.7135 74.1875 18.9219C74.0833 19.1302 73.9323 19.3333 73.7344 19.5312C73.5365 19.7188 73.2917 19.8854 73 20.0312C72.7188 20.1667 72.4062 20.2344 72.0625 20.2344C71.7604 20.2344 71.4792 20.1927 71.2188 20.1094C70.9583 20.0156 70.7135 19.8958 70.4844 19.75C70.2656 19.6042 70.0625 19.4375 69.875 19.25C69.6875 19.0625 69.5156 18.8646 69.3594 18.6562ZM82.1406 18.6719C82.026 18.9115 81.8802 19.1979 81.7031 19.5312C81.5365 19.8542 81.3438 20.1927 81.125 20.5469C80.9062 20.901 80.6615 21.2552 80.3906 21.6094C80.1198 21.9531 79.8229 22.2656 79.5 22.5469C79.1875 22.8177 78.849 23.0365 78.4844 23.2031C78.1302 23.3802 77.75 23.4688 77.3438 23.4688C76.7188 23.4688 76.1823 23.276 75.7344 22.8906C75.2865 22.5052 74.9062 22 74.5938 21.375C74.2812 20.75 74.026 20.0417 73.8281 19.25C73.6406 18.4479 73.4948 17.6354 73.3906 16.8125C73.2865 15.9792 73.2135 15.1719 73.1719 14.3906C73.1406 13.6094 73.125 12.9167 73.125 12.3125C73.125 11.4375 73.151 10.5312 73.2031 9.59375C73.2656 8.65625 73.3594 7.73958 73.4844 6.84375C73.6094 5.94792 73.7656 5.09896 73.9531 4.29688C74.151 3.49479 74.3802 2.79167 74.6406 2.1875C74.9115 1.58333 75.2188 1.10417 75.5625 0.75C75.9062 0.395833 76.2969 0.21875 76.7344 0.21875C77.0781 0.21875 77.3854 0.302083 77.6562 0.46875C77.9375 0.625 78.1719 0.885417 78.3594 1.25C78.5469 1.61458 78.6927 2.08854 78.7969 2.67188C78.901 3.25521 78.9531 3.96875 78.9531 4.8125C78.9531 5.85417 78.8438 6.93229 78.625 8.04688C78.4062 9.15104 78.1094 10.2656 77.7344 11.3906C77.3594 12.5156 76.9167 13.6406 76.4062 14.7656C75.8958 15.8802 75.349 16.9688 74.7656 18.0312C75.026 19.3542 75.375 20.3958 75.8125 21.1562C76.25 21.9062 76.776 22.2812 77.3906 22.2812C77.8073 22.2812 78.2083 22.1198 78.5938 21.7969C78.9792 21.4635 79.3333 21.0729 79.6562 20.625C79.9792 20.1771 80.2604 19.724 80.5 19.2656C80.75 18.7969 80.9427 18.4219 81.0781 18.1406C81.1302 18.0365 81.2031 17.9583 81.2969 17.9062C81.3906 17.8438 81.4948 17.8125 81.6094 17.8125C81.7865 17.8125 81.9271 17.875 82.0312 18C82.1458 18.125 82.2031 18.2656 82.2031 18.4219C82.2031 18.4844 82.1823 18.5677 82.1406 18.6719ZM74.3125 12.3906C74.3125 13.0573 74.3281 13.6979 74.3594 14.3125C74.3906 14.9271 74.4323 15.5156 74.4844 16.0781C74.9219 15.2344 75.3385 14.3385 75.7344 13.3906C76.1302 12.4323 76.4792 11.4688 76.7812 10.5C77.0833 9.52083 77.3229 8.55208 77.5 7.59375C77.6875 6.625 77.7812 5.70312 77.7812 4.82812C77.7812 3.59896 77.6823 2.71875 77.4844 2.1875C77.2865 1.65625 77.0208 1.39062 76.6875 1.39062C76.4688 1.39062 76.2552 1.54167 76.0469 1.84375C75.849 2.14583 75.6615 2.55729 75.4844 3.07812C75.3073 3.59896 75.1458 4.21354 75 4.92188C74.8542 5.63021 74.7292 6.39062 74.625 7.20312C74.5312 8.01562 74.4531 8.86458 74.3906 9.75C74.3385 10.6354 74.3125 11.5156 74.3125 12.3906ZM82.9688 21.2812C83.1875 21.5833 83.4688 21.8281 83.8125 22.0156C84.1562 22.1927 84.5781 22.2812 85.0781 22.2812C85.5885 22.2812 86.0521 22.1615 86.4688 21.9219C86.8854 21.6719 87.2656 21.349 87.6094 20.9531C87.9531 20.5573 88.2604 20.1146 88.5312 19.625C88.8021 19.1354 89.0469 18.6458 89.2656 18.1562C89.3177 18.0417 89.3906 17.9583 89.4844 17.9062C89.5781 17.8438 89.6823 17.8125 89.7969 17.8125C89.974 17.8125 90.1146 17.875 90.2188 18C90.3333 18.125 90.3906 18.2604 90.3906 18.4062C90.3906 18.4583 90.3854 18.5052 90.375 18.5469C90.3646 18.5781 90.349 18.6146 90.3281 18.6562C89.6094 20.2396 88.8229 21.4323 87.9688 22.2344C87.125 23.0365 86.1667 23.4479 85.0938 23.4688C84.4062 23.4688 83.8125 23.3333 83.3125 23.0625C82.8125 22.8021 82.401 22.4635 82.0781 22.0469C81.7552 21.6198 81.5156 21.1406 81.3594 20.6094C81.2031 20.0781 81.125 19.5469 81.125 19.0156C81.125 18.4844 81.1875 17.9948 81.3125 17.5469C81.4479 17.099 81.6354 16.7083 81.875 16.375C82.125 16.0417 82.4167 15.7812 82.75 15.5938C83.0938 15.4062 83.4688 15.3125 83.875 15.3125C84.1146 15.3125 84.349 15.3646 84.5781 15.4688C84.8177 15.5625 85.0312 15.7031 85.2188 15.8906C85.4062 16.0677 85.5573 16.2865 85.6719 16.5469C85.7865 16.8073 85.8438 17.1042 85.8438 17.4375C85.8438 17.8646 85.7708 18.2656 85.625 18.6406C85.4792 19.0156 85.276 19.3646 85.0156 19.6875C84.7656 20.0104 84.4635 20.3073 84.1094 20.5781C83.7552 20.849 83.375 21.0833 82.9688 21.2812ZM82.5 20.2656C82.8229 20.1302 83.1146 19.9583 83.375 19.75C83.6458 19.5417 83.875 19.3125 84.0625 19.0625C84.25 18.8125 84.3958 18.5521 84.5 18.2812C84.6042 18 84.6562 17.7188 84.6562 17.4375C84.6562 17.125 84.5781 16.8906 84.4219 16.7344C84.2656 16.5677 84.0833 16.4844 83.875 16.4844C83.5938 16.4844 83.3542 16.5625 83.1562 16.7188C82.9583 16.875 82.7969 17.0781 82.6719 17.3281C82.5469 17.5781 82.4531 17.8594 82.3906 18.1719C82.3385 18.474 82.3125 18.776 82.3125 19.0781C82.3125 19.2656 82.3281 19.4635 82.3594 19.6719C82.401 19.8802 82.4479 20.0781 82.5 20.2656Z" fill="#EC4899"/>
</svg>
